<?xml version="1.0" encoding="utf-8"?>
<!-- Generator: Adobe Illustrator 16.0.0, SVG Export Plug-In . SVG Version: 6.00 Build 0)  -->
<!DOCTYPE svg PUBLIC "-//W3C//DTD SVG 1.1//EN" "http://www.w3.org/Graphics/SVG/1.1/DTD/svg11.dtd">
<svg version="1.1" id="Ebene_1" xmlns="http://www.w3.org/2000/svg" xmlns:xlink="http://www.w3.org/1999/xlink" x="0px" y="0px"
	 width="32px" height="32px" viewBox="0 0 32 32" enable-background="new 0 0 32 32" xml:space="preserve">
<g>
	
		<path fill="none" stroke="#747474" stroke-width="1.75" stroke-linecap="round" stroke-linejoin="round" stroke-miterlimit="10" d="
		M11.688,19.402c0,0,0.105,1.93,2.127,1.93s2.061-2.06,2.061-2.06s0.143,2.074,2.072,2.074c1.93,0,1.947-1.944,1.947-1.944"/>
	
		<path fill="none" stroke="#747474" stroke-width="1.75" stroke-linecap="round" stroke-linejoin="round" stroke-miterlimit="10" d="
		M10.575,5.932c0,0-4.225,4.711-4.473,11.427c-0.227,6.127,5.68,8.71,9.789,8.71c4.107,0,9.583-2.738,9.583-7.732
		S22.889,7.164,20.957,5.949c-1.09,0.674-2.732,3.285-3.859,7.635H14.47C14.47,13.584,12.808,7.278,10.575,5.932z"/>
	<circle fill="#FFFFFF" cx="20.936" cy="14.528" r="1.131"/>
	<circle fill="#FFFFFF" cx="10.849" cy="14.528" r="1.131"/>
	
		<line fill="none" stroke="#747474" stroke-width="1.75" stroke-linecap="round" stroke-linejoin="round" stroke-miterlimit="10" x1="3.272" y1="15.133" x2="6.319" y2="15.939"/>
	
		<line fill="none" stroke="#747474" stroke-width="1.75" stroke-linecap="round" stroke-linejoin="round" stroke-miterlimit="10" x1="6.093" y1="18.516" x2="3.102" y2="18.611"/>
	
		<line fill="none" stroke="#747474" stroke-width="1.75" stroke-linecap="round" stroke-linejoin="round" stroke-miterlimit="10" x1="6.907" y1="21.319" x2="3.481" y2="22.619"/>
	
		<line fill="none" stroke="#747474" stroke-width="1.75" stroke-linecap="round" stroke-linejoin="round" stroke-miterlimit="10" x1="28.729" y1="15.133" x2="25.311" y2="15.984"/>
	
		<line fill="none" stroke="#747474" stroke-width="1.75" stroke-linecap="round" stroke-linejoin="round" stroke-miterlimit="10" x1="25.477" y1="18.526" x2="28.898" y2="18.611"/>
	
		<line fill="none" stroke="#747474" stroke-width="1.75" stroke-linecap="round" stroke-linejoin="round" stroke-miterlimit="10" x1="24.813" y1="21.184" x2="28.52" y2="22.619"/>
</g>
</svg>
