<?xml version="1.0" encoding="utf-8"?>
<!-- Generator: Adobe Illustrator 16.0.3, SVG Export Plug-In . SVG Version: 6.00 Build 0)  -->
<!DOCTYPE svg PUBLIC "-//W3C//DTD SVG 1.1//EN" "http://www.w3.org/Graphics/SVG/1.1/DTD/svg11.dtd">
<svg version="1.1" id="Ebene_1" xmlns="http://www.w3.org/2000/svg" xmlns:xlink="http://www.w3.org/1999/xlink" x="0px" y="0px"
	 width="32px" height="32px" viewBox="0 0 32 32" enable-background="new 0 0 32 32" xml:space="preserve">
<path fill="none" stroke="#747474" stroke-width="1.75" stroke-linecap="round" stroke-linejoin="round" stroke-miterlimit="10" d="
	M26.597,15.435c0.291,0.835,0.449,1.733,0.449,2.667c0,2.288-0.949,4.355-2.474,5.829"/>
<polygon fill="none" stroke="#747474" stroke-width="1.75" stroke-linecap="round" stroke-linejoin="round" stroke-miterlimit="10" points="
	20.332,28.045 20.332,19.639 28.319,28.045 "/>
<path fill="none" stroke="#747474" stroke-width="1.75" stroke-linecap="round" stroke-linejoin="round" stroke-miterlimit="10" d="
	M12.802,27.804c-0.797-0.385-1.542-0.907-2.203-1.568c-1.619-1.618-2.409-3.75-2.374-5.87"/>
<polygon fill="none" stroke="#747474" stroke-width="1.75" stroke-linecap="round" stroke-linejoin="round" stroke-miterlimit="10" points="
	8.314,14.458 14.259,20.402 2.667,20.104 "/>
<path fill="none" stroke="#747474" stroke-width="1.75" stroke-linecap="round" stroke-linejoin="round" stroke-miterlimit="10" d="
	M10.123,10.34c0.568-0.677,1.258-1.272,2.061-1.751c1.965-1.171,4.226-1.415,6.273-0.86"/>
<polygon fill="none" stroke="#747474" stroke-width="1.75" stroke-linecap="round" stroke-linejoin="round" stroke-miterlimit="10" points="
	24.162,9.264 16.94,13.569 20.073,2.404 "/>
</svg>
