<?xml version="1.0" encoding="utf-8"?>
<!-- Generator: Adobe Illustrator 16.0.3, SVG Export Plug-In . SVG Version: 6.00 Build 0)  -->
<!DOCTYPE svg PUBLIC "-//W3C//DTD SVG 1.1//EN" "http://www.w3.org/Graphics/SVG/1.1/DTD/svg11.dtd">
<svg version="1.1" id="Ebene_1" xmlns="http://www.w3.org/2000/svg" xmlns:xlink="http://www.w3.org/1999/xlink" x="0px" y="0px"
	 width="32px" height="32px" viewBox="0 0 32 32" enable-background="new 0 0 32 32" xml:space="preserve">
<path fill="none" stroke="#747474" stroke-width="1.75" stroke-linecap="round" stroke-linejoin="round" stroke-miterlimit="10" d="
	M22.526,11.04c-0.119,0-0.238,0.005-0.357,0.012c-1.067-2.438-3.5-4.141-6.332-4.141c-3.818,0-6.914,3.095-6.914,6.913
	c0,0.05,0.003,0.1,0.004,0.15c-0.101-0.007-0.201-0.011-0.303-0.011c-2.453,0-4.441,1.988-4.441,4.44
	c0,2.359,1.842,4.289,4.167,4.432v0.008h14.177c3.26,0,5.902-2.641,5.902-5.9S25.786,11.04,22.526,11.04z"/>
</svg>
