<?xml version="1.0" encoding="utf-8"?>
<!-- Generator: Adobe Illustrator 16.0.0, SVG Export Plug-In . SVG Version: 6.00 Build 0)  -->
<!DOCTYPE svg PUBLIC "-//W3C//DTD SVG 1.1//EN" "http://www.w3.org/Graphics/SVG/1.1/DTD/svg11.dtd">
<svg version="1.1" id="Ebene_1" xmlns="http://www.w3.org/2000/svg" xmlns:xlink="http://www.w3.org/1999/xlink" x="0px" y="0px"
	 width="32px" height="32px" viewBox="0 0 32 32" enable-background="new 0 0 32 32" xml:space="preserve">
<g>
	
		<path fill="none" stroke="#747474" stroke-width="1.75" stroke-linecap="round" stroke-linejoin="round" stroke-miterlimit="10" d="
		M11.758,19.82c0,0,0.101,1.84,2.028,1.84s1.964-1.962,1.964-1.962s0.136,1.977,1.975,1.977c1.84,0,1.856-1.854,1.856-1.854"/>
	<circle fill="#FFFFFF" cx="18.591" cy="13.127" r="1.078"/>
	<circle fill="#FFFFFF" cx="12.716" cy="13.118" r="1.078"/>
	
		<path fill="none" stroke="#747474" stroke-width="1.75" stroke-linecap="round" stroke-linejoin="round" stroke-miterlimit="10" d="
		M15.786,5.564c0,0-4.16-0.594-7.98,8.999c-3.481,8.66-0.425,11.886,7.853,11.886s12.443-2.865,8.405-11.885
		C19.691,4.801,15.786,5.564,15.786,5.564z"/>
	
		<path fill="none" stroke="#747474" stroke-width="1.75" stroke-linecap="round" stroke-linejoin="round" stroke-miterlimit="10" d="
		M15.237,5.606c0,0-2.88,0.206-6.988,3.054c-2.354,1.632-5.771,3.957-5.941,6.504c-0.169,2.546,2.708,4.395,4.194,3.844"/>
	
		<path fill="none" stroke="#747474" stroke-width="1.75" stroke-linecap="round" stroke-linejoin="round" stroke-miterlimit="10" d="
		M16.449,5.61c0,0,3.194,0.202,7.301,3.051c2.354,1.632,5.771,3.957,5.941,6.504c0.17,2.546-2.708,4.395-4.193,3.844"/>
	<ellipse fill="#FFFFFF" cx="15.67" cy="16.456" rx="2.155" ry="1.468"/>
</g>
</svg>
