<?xml version="1.0" encoding="utf-8"?>
<!-- Generator: Adobe Illustrator 16.0.3, SVG Export Plug-In . SVG Version: 6.00 Build 0)  -->
<!DOCTYPE svg PUBLIC "-//W3C//DTD SVG 1.1//EN" "http://www.w3.org/Graphics/SVG/1.1/DTD/svg11.dtd">
<svg version="1.1" id="Ebene_1" xmlns="http://www.w3.org/2000/svg" xmlns:xlink="http://www.w3.org/1999/xlink" x="0px" y="0px"
	 width="32px" height="32px" viewBox="0 0 32 32" enable-background="new 0 0 32 32" xml:space="preserve">
<polyline fill="none" stroke="#747474" stroke-width="1.75" stroke-linecap="round" stroke-linejoin="round" stroke-miterlimit="10" points="
	15.967,29.078 14.826,21.078 7.967,21.078 6.966,29.078 "/>
<path fill="none" stroke="#747474" stroke-width="1.75" stroke-linecap="round" stroke-linejoin="round" stroke-miterlimit="1" d="
	M12.966,10.076"/>
<path fill="none" stroke="#747474" stroke-width="1.75" stroke-linecap="round" stroke-linejoin="round" stroke-miterlimit="10" d="
	M13.777,17.611c1.643,0,3.727-0.408,4.778-1.883c0.216-0.304,0.366-0.634,0.413-1.01c0.014-0.112-0.049-1.304-0.015-1.306
	c1.648-0.089,3.032,1.264,4.687,0.417c2.838-1.452,3.886-5.509,2.283-8.157c-2.031-3.359-7.034-3.774-10.166-1.866
	c-0.919,0.56-1.961,1.386-2.61,2.252c-1.34,1.786-2.344,4.357-1.704,6.608c-2.603-1.587-4.155,2.309-2.519,4.228"/>
</svg>
