<?xml version="1.0" encoding="utf-8"?>
<!-- Generator: Adobe Illustrator 16.0.0, SVG Export Plug-In . SVG Version: 6.00 Build 0)  -->
<!DOCTYPE svg PUBLIC "-//W3C//DTD SVG 1.1//EN" "http://www.w3.org/Graphics/SVG/1.1/DTD/svg11.dtd">
<svg version="1.1" id="Ebene_1" xmlns="http://www.w3.org/2000/svg" xmlns:xlink="http://www.w3.org/1999/xlink" x="0px" y="0px"
	 width="32px" height="32px" viewBox="0 0 32 32" enable-background="new 0 0 32 32" xml:space="preserve">
<g>
	
		<path fill="none" stroke="#747474" stroke-width="1.75" stroke-linecap="round" stroke-linejoin="round" stroke-miterlimit="10" d="
		M19.839,24.517c0.356-3.41,1.827-7.623,2.487-8.531c1.076-1.191,1.721-2.706,1.721-4.355c0-3.831-3.479-6.936-7.774-6.936
		c-4.293,0-7.776,3.104-7.776,6.936c0,1.465,0.511,2.824,1.378,3.943l0,0c0,0,0.003,0.003,0.01,0.009
		c0.054,0.071,0.109,0.14,0.167,0.208c0.553,0.719,2.243,5.034,2.63,8.725H19.839z"/>
	
		<line fill="none" stroke="#747474" stroke-width="1.75" stroke-linecap="round" stroke-linejoin="round" stroke-miterlimit="10" x1="16.133" y1="14.887" x2="16.133" y2="20.907"/>
	
		<line fill="none" stroke="#747474" stroke-width="1.75" stroke-linecap="round" stroke-linejoin="round" stroke-miterlimit="10" x1="12.511" y1="28.247" x2="19.743" y2="28.247"/>
</g>
</svg>
