<?xml version="1.0" encoding="utf-8"?>
<!-- Generator: Adobe Illustrator 16.0.0, SVG Export Plug-In . SVG Version: 6.00 Build 0)  -->
<!DOCTYPE svg PUBLIC "-//W3C//DTD SVG 1.1//EN" "http://www.w3.org/Graphics/SVG/1.1/DTD/svg11.dtd">
<svg version="1.1" id="Ebene_1" xmlns="http://www.w3.org/2000/svg" xmlns:xlink="http://www.w3.org/1999/xlink" x="0px" y="0px"
	 width="32px" height="32px" viewBox="0 0 32 32" enable-background="new 0 0 32 32" xml:space="preserve">
<g>
	
		<path fill="none" stroke="#747474" stroke-width="1.75" stroke-linecap="round" stroke-linejoin="round" stroke-miterlimit="10" d="
		M19.167,25.87c0.294-2.814,1.508-6.291,2.053-7.039c0.888-0.982,1.42-2.232,1.42-3.593c0-3.161-2.871-5.723-6.414-5.723
		S9.81,12.077,9.81,15.238c0,1.208,0.422,2.33,1.137,3.253l0,0c0,0,0.003,0.003,0.008,0.008c0.045,0.059,0.091,0.115,0.139,0.172
		c0.456,0.594,1.851,4.153,2.17,7.199H19.167z"/>
	
		<line fill="none" stroke="#747474" stroke-width="1.75" stroke-linecap="round" stroke-linejoin="round" stroke-miterlimit="10" x1="16.11" y1="17.925" x2="16.11" y2="22.892"/>
	
		<line fill="none" stroke="#747474" stroke-width="1.75" stroke-linecap="round" stroke-linejoin="round" stroke-miterlimit="10" x1="13.121" y1="28.948" x2="19.089" y2="28.948"/>
	
		<line fill="none" stroke="#747474" stroke-width="0.9" stroke-linecap="round" stroke-miterlimit="10" x1="20.872" y1="6.518" x2="22.224" y2="4.157"/>
	
		<line fill="none" stroke="#747474" stroke-width="0.9" stroke-linecap="round" stroke-miterlimit="10" x1="24.392" y1="10.061" x2="26.632" y2="8.767"/>
	
		<line fill="none" stroke="#747474" stroke-width="0.9" stroke-linecap="round" stroke-miterlimit="10" x1="9.917" y1="4.071" x2="11.318" y2="6.518"/>
	
		<line fill="none" stroke="#747474" stroke-width="0.9" stroke-linecap="round" stroke-miterlimit="10" x1="5.415" y1="8.683" x2="7.798" y2="10.061"/>
	
		<line fill="none" stroke="#747474" stroke-width="0.9" stroke-linecap="round" stroke-miterlimit="10" x1="16.081" y1="5.183" x2="16.075" y2="2.419"/>
</g>
</svg>
