<?xml version="1.0" encoding="utf-8"?>
<!-- Generator: Adobe Illustrator 16.0.0, SVG Export Plug-In . SVG Version: 6.00 Build 0)  -->
<!DOCTYPE svg PUBLIC "-//W3C//DTD SVG 1.1//EN" "http://www.w3.org/Graphics/SVG/1.1/DTD/svg11.dtd">
<svg version="1.1" id="Ebene_1" xmlns="http://www.w3.org/2000/svg" xmlns:xlink="http://www.w3.org/1999/xlink" x="0px" y="0px"
	 width="32px" height="32px" viewBox="0 0 32 32" enable-background="new 0 0 32 32" xml:space="preserve">
<g>
	
		<path fill="none" stroke="#747474" stroke-width="1.75" stroke-linecap="round" stroke-linejoin="round" stroke-miterlimit="10" d="
		M19.167,25.87c0.294-2.813,1.508-6.291,2.054-7.039c0.887-0.981,1.42-2.231,1.42-3.593c0-3.161-2.871-5.723-6.415-5.723
		c-3.543,0-6.416,2.562-6.416,5.723c0,1.208,0.422,2.331,1.137,3.253l0,0c0,0,0.003,0.003,0.008,0.008
		c0.045,0.06,0.091,0.115,0.139,0.172c0.456,0.595,1.851,4.153,2.17,7.199H19.167z"/>
	
		<line fill="none" stroke="#747474" stroke-width="1.75" stroke-linecap="round" stroke-linejoin="round" stroke-miterlimit="10" x1="16.11" y1="17.925" x2="16.11" y2="22.893"/>
	
		<line fill="none" stroke="#747474" stroke-width="1.75" stroke-linecap="round" stroke-linejoin="round" stroke-miterlimit="10" x1="13.121" y1="28.948" x2="19.089" y2="28.948"/>
	
		<line fill="none" stroke="#747474" stroke-width="0.9" stroke-linecap="round" stroke-miterlimit="10" x1="16.081" y1="5.183" x2="16.075" y2="2.419"/>
</g>
</svg>
