<?xml version="1.0" encoding="utf-8"?>
<!-- Generator: Adobe Illustrator 16.0.0, SVG Export Plug-In . SVG Version: 6.00 Build 0)  -->
<!DOCTYPE svg PUBLIC "-//W3C//DTD SVG 1.1//EN" "http://www.w3.org/Graphics/SVG/1.1/DTD/svg11.dtd">
<svg version="1.1" id="Ebene_1" xmlns="http://www.w3.org/2000/svg" xmlns:xlink="http://www.w3.org/1999/xlink" x="0px" y="0px"
	 width="32px" height="32px" viewBox="0 0 32 32" enable-background="new 0 0 32 32" xml:space="preserve">
<g>
	<circle fill="#FFFFFF" cx="4.148" cy="21.42" r="0.427"/>
	
		<rect x="11.872" y="26.303" fill="none" stroke="#747474" stroke-width="1.75" stroke-linecap="round" stroke-linejoin="round" stroke-miterlimit="10" width="1.709" height="1.084"/>
	<g>
		
			<polyline fill="none" stroke="#747474" stroke-width="1.75" stroke-linecap="round" stroke-linejoin="round" stroke-miterlimit="10" points="
			9.608,13.571 2.252,13.571 2.252,29.735 9.608,29.735 		"/>
		
			<polyline fill="none" stroke="#747474" stroke-width="1.75" stroke-linecap="round" stroke-linejoin="round" stroke-miterlimit="10" points="
			18.256,13.571 18.256,10.683 9.608,13.571 		"/>
		
			<line fill="none" stroke="#747474" stroke-width="1.75" stroke-linecap="round" stroke-linejoin="round" stroke-miterlimit="10" x1="9.608" y1="13.571" x2="9.608" y2="13.629"/>
		
			<line fill="none" stroke="#747474" stroke-width="1.75" stroke-linecap="round" stroke-linejoin="round" stroke-miterlimit="10" x1="23.382" y1="29.735" x2="9.608" y2="29.735"/>
		
			<line fill="none" stroke="#747474" stroke-width="1.75" stroke-linecap="round" stroke-linejoin="round" stroke-miterlimit="10" x1="9.608" y1="29.735" x2="9.608" y2="24.108"/>
		
			<line fill="none" stroke="#747474" stroke-width="1.75" stroke-linecap="round" stroke-linejoin="round" stroke-miterlimit="10" x1="9.608" y1="24.108" x2="9.608" y2="24.108"/>
		
			<line fill="none" stroke="#747474" stroke-width="1.75" stroke-linecap="round" stroke-linejoin="round" stroke-miterlimit="10" x1="9.608" y1="18.701" x2="9.608" y2="13.629"/>
		
			<line fill="none" stroke="#747474" stroke-width="1.75" stroke-linecap="round" stroke-linejoin="round" stroke-miterlimit="10" x1="18.256" y1="13.571" x2="23.382" y2="13.571"/>
		
			<polyline fill="none" stroke="#747474" stroke-width="1.75" stroke-linecap="round" stroke-linejoin="round" stroke-miterlimit="10" points="
			23.382,13.571 19.01,21.653 23.382,29.735 		"/>
		
			<path fill="none" stroke="#747474" stroke-width="1.75" stroke-linecap="round" stroke-linejoin="round" stroke-miterlimit="10" d="
			M9.608,18.73H8.627c-1.313,0-2,0.833-2,2.326v0.727c0,1.493,0.688,2.325,2,2.325h0.981"/>
		
			<polyline fill="none" stroke="#747474" stroke-width="1.75" stroke-linecap="round" stroke-linejoin="round" stroke-miterlimit="10" points="
			23.382,13.571 29.748,13.571 29.748,29.735 23.382,29.735 		"/>
		<g>
			
				<path fill="none" stroke="#747474" stroke-width="1.75" stroke-linecap="round" stroke-linejoin="round" stroke-miterlimit="10" d="
				M23.382,10.607"/>
			
				<path fill="none" stroke="#747474" stroke-width="1.75" stroke-linecap="round" stroke-linejoin="round" stroke-miterlimit="10" d="
				M23.382,5.229"/>
			
				<polyline fill="none" stroke="#747474" stroke-width="1.75" stroke-linecap="round" stroke-linejoin="round" stroke-miterlimit="10" points="
				23.382,5.229 23.382,2.265 9.608,2.265 9.608,13.571 			"/>
			
				<line fill="none" stroke="#747474" stroke-width="1.75" stroke-linecap="round" stroke-linejoin="round" stroke-miterlimit="10" x1="23.382" y1="10.607" x2="23.382" y2="13.571"/>
			
				<path fill="none" stroke="#747474" stroke-width="1.75" stroke-linecap="round" stroke-linejoin="round" stroke-miterlimit="10" d="
				M23.382,5.229h0.981c1.313,0,1.999,0.832,1.999,2.325v0.727c0,1.493-0.687,2.326-1.999,2.326h-0.981"/>
		</g>
	</g>
	<g>
		
			<line fill="none" stroke="#747474" stroke-width="1.75" stroke-linecap="round" stroke-linejoin="round" stroke-miterlimit="10" x1="26.268" y1="22.671" x2="26.998" y2="22.671"/>
		
			<line fill="none" stroke="#747474" stroke-width="1.75" stroke-linecap="round" stroke-linejoin="round" stroke-miterlimit="10" x1="26.316" y1="25.621" x2="27.047" y2="25.621"/>
		
			<line fill="none" stroke="#747474" stroke-width="1.75" stroke-linecap="round" stroke-linejoin="round" stroke-miterlimit="10" x1="26.268" y1="23.755" x2="26.998" y2="23.755"/>
	</g>
	
		<line fill="none" stroke="#747474" stroke-width="1.75" stroke-linecap="round" stroke-linejoin="round" stroke-miterlimit="10" x1="26.316" y1="16.476" x2="27.047" y2="16.476"/>
	<g>
		<circle fill="#FFFFFF" cx="16.918" cy="5.278" r="0.426"/>
		<circle fill="#FFFFFF" cx="15.21" cy="5.278" r="0.427"/>
		<circle fill="#FFFFFF" cx="13.501" cy="5.278" r="0.426"/>
	</g>
	<g>
		
			<rect x="11.872" y="15.732" fill="none" stroke="#747474" stroke-width="1.75" stroke-linecap="round" stroke-linejoin="round" stroke-miterlimit="10" width="1.709" height="1.083"/>
		
			<rect x="11.872" y="18.127" fill="none" stroke="#747474" stroke-width="1.75" stroke-linecap="round" stroke-linejoin="round" stroke-miterlimit="10" width="1.709" height="1.084"/>
		
			<line fill="none" stroke="#747474" stroke-width="1.75" stroke-linecap="round" stroke-linejoin="round" stroke-miterlimit="10" x1="14.867" y1="15.732" x2="15.599" y2="15.732"/>
		
			<line fill="none" stroke="#747474" stroke-width="1.75" stroke-linecap="round" stroke-linejoin="round" stroke-miterlimit="10" x1="14.914" y1="18.682" x2="15.646" y2="18.682"/>
		
			<line fill="none" stroke="#747474" stroke-width="1.75" stroke-linecap="round" stroke-linejoin="round" stroke-miterlimit="10" x1="14.867" y1="16.815" x2="15.599" y2="16.815"/>
	</g>
</g>
</svg>
