<?xml version="1.0" encoding="utf-8"?>
<!-- Generator: Adobe Illustrator 16.0.0, SVG Export Plug-In . SVG Version: 6.00 Build 0)  -->
<!DOCTYPE svg PUBLIC "-//W3C//DTD SVG 1.1//EN" "http://www.w3.org/Graphics/SVG/1.1/DTD/svg11.dtd">
<svg version="1.1" id="Ebene_1" xmlns="http://www.w3.org/2000/svg" xmlns:xlink="http://www.w3.org/1999/xlink" x="0px" y="0px"
	 width="32px" height="32px" viewBox="0 0 32 32" enable-background="new 0 0 32 32" xml:space="preserve">
<g>
	
		<path fill="none" stroke="#747474" stroke-width="1.75" stroke-linecap="round" stroke-linejoin="round" stroke-miterlimit="10" d="
		M9.208,20.928c0,0,2.353-7.861,1.127-16.1c0,0,2.002,1.637,3.599,2.815c2.938,2.165,3.279,5.235,3.595,7.752
		c0,0-4.162-4.939-6.841-5.739"/>
	
		<path fill="none" stroke="#747474" stroke-width="1.75" stroke-linecap="round" stroke-linejoin="round" stroke-miterlimit="10" d="
		M9.375,19.498c0.233,1.556-0.84,3.005-2.397,3.237c-1.558,0.232-3.006-0.842-3.241-2.397c-0.233-1.558,0.843-3.01,2.401-3.241
		C7.696,16.865,9.143,17.941,9.375,19.498z"/>
	
		<path fill="none" stroke="#747474" stroke-width="1.75" stroke-linecap="round" stroke-linejoin="round" stroke-miterlimit="10" d="
		M19.973,25.332c0,0,2.354-7.86,1.128-16.098c0,0,2.002,1.637,3.599,2.814c2.937,2.165,3.278,5.235,3.595,7.751
		c0,0-4.162-4.938-6.841-5.737"/>
	
		<path fill="none" stroke="#747474" stroke-width="1.75" stroke-linecap="round" stroke-linejoin="round" stroke-miterlimit="10" d="
		M20.14,23.903c0.233,1.555-0.84,3.005-2.396,3.237c-1.559,0.232-3.007-0.844-3.242-2.398c-0.233-1.557,0.843-3.008,2.402-3.24
		C18.461,21.271,19.907,22.347,20.14,23.903z"/>
</g>
</svg>
