<?xml version="1.0" encoding="utf-8"?>
<!-- Generator: Adobe Illustrator 16.0.3, SVG Export Plug-In . SVG Version: 6.00 Build 0)  -->
<!DOCTYPE svg PUBLIC "-//W3C//DTD SVG 1.1//EN" "http://www.w3.org/Graphics/SVG/1.1/DTD/svg11.dtd">
<svg version="1.1" id="Ebene_1" xmlns="http://www.w3.org/2000/svg" xmlns:xlink="http://www.w3.org/1999/xlink" x="0px" y="0px"
	 width="32px" height="32px" viewBox="0 0 32 32" enable-background="new 0 0 32 32" xml:space="preserve">
<path fill="none" stroke="#747474" stroke-width="1.75" stroke-linecap="round" stroke-linejoin="round" stroke-miterlimit="10" d="
	M22.957,24.297c0,3-2,3-2,3H10.955c0,0-2,0-2-3s0-2,0-2V9.295c0,0,0-1,0-3s2.001-2,2.001-2h10.001c0,0,2,0,2,2c0,1,0,3,0,3v13.002
	C22.957,22.297,22.957,23.547,22.957,24.297z"/>
<circle fill="#FFFFFF" cx="15.956" cy="23.297" r="1"/>
<line fill="none" stroke="#747474" stroke-width="1.75" stroke-linecap="round" stroke-linejoin="round" stroke-miterlimit="10" x1="8.955" y1="19.297" x2="22.957" y2="19.297"/>
</svg>
