<?xml version="1.0" encoding="utf-8"?>
<!-- Generator: Adobe Illustrator 16.0.3, SVG Export Plug-In . SVG Version: 6.00 Build 0)  -->
<!DOCTYPE svg PUBLIC "-//W3C//DTD SVG 1.1//EN" "http://www.w3.org/Graphics/SVG/1.1/DTD/svg11.dtd">
<svg version="1.1" id="Ebene_1" xmlns="http://www.w3.org/2000/svg" xmlns:xlink="http://www.w3.org/1999/xlink" x="0px" y="0px"
	 width="32px" height="32px" viewBox="0 0 32 32" enable-background="new 0 0 32 32" xml:space="preserve">
<g>
	
		<path fill="none" stroke="#747474" stroke-width="1.75" stroke-linecap="round" stroke-linejoin="round" stroke-miterlimit="10" d="
		M14.412,14.557c0,0-6.284-4.189-7.332,0c-1.048,4.191,16.759,10.475,17.806,6.285c1.046-4.189-5.238-4.189-5.238-4.189"/>
	
		<path fill="none" stroke="#747474" stroke-width="1.75" stroke-linecap="round" stroke-linejoin="round" stroke-miterlimit="10" d="
		M14.412,14.557c0.31-0.887,0.074-2.013,0-3.468c-0.188-3.688,3.525-7.058,6.604-5.836c4.326,1.716,3.312,7.024,1.35,8.684
		c-1.544,1.307-2.412,1.632-3.007,2.639"/>
	
		<path fill="none" stroke="#747474" stroke-width="1.75" stroke-linecap="round" stroke-linejoin="round" stroke-miterlimit="10" d="
		M18.603,21.889c0,2.604-2.111,5.238-4.715,5.238c-2.602,0-4.712-2.111-4.712-4.715c0-1.91,0.649-3.084,1.438-3.496"/>
</g>
</svg>
