<?xml version="1.0" encoding="utf-8"?>
<!-- Generator: Adobe Illustrator 16.0.0, SVG Export Plug-In . SVG Version: 6.00 Build 0)  -->
<!DOCTYPE svg PUBLIC "-//W3C//DTD SVG 1.1//EN" "http://www.w3.org/Graphics/SVG/1.1/DTD/svg11.dtd">
<svg version="1.1" id="Ebene_1" xmlns="http://www.w3.org/2000/svg" xmlns:xlink="http://www.w3.org/1999/xlink" x="0px" y="0px"
	 width="32px" height="32px" viewBox="0 0 32 32" enable-background="new 0 0 32 32" xml:space="preserve">
<g>
	
		<path fill="none" stroke="#747474" stroke-width="1.75" stroke-linecap="round" stroke-linejoin="round" stroke-miterlimit="10" d="
		M16.001,18.841c5.407,0,9.792-4.384,9.792-9.792H6.207C6.207,14.457,10.594,18.841,16.001,18.841z"/>
	
		<line fill="none" stroke="#747474" stroke-width="1.75" stroke-linecap="round" stroke-linejoin="round" stroke-miterlimit="10" x1="10.984" y1="4.678" x2="10.984" y2="9.036"/>
	
		<line fill="none" stroke="#747474" stroke-width="1.75" stroke-linecap="round" stroke-linejoin="round" stroke-miterlimit="10" x1="21.176" y1="4.678" x2="21.176" y2="9.036"/>
	
		<path fill="none" stroke="#747474" stroke-width="1.75" stroke-linecap="round" stroke-linejoin="round" stroke-miterlimit="10" d="
		M15.224,18.843c-0.251,0.793-0.177,1.455,0.23,2.184c0.379,0.678,1.112,1.244,1.892,1.348c1.4,0.186,4.689-0.965,4.228,1.908
		c-0.385,2.395-3.809,1.67-5.464,1.564c-0.914-0.059-2.416-0.229-3.242,0.252c-0.817,0.473-0.845,1.826-0.015,2.412"/>
	
		<line fill="none" stroke="#747474" stroke-width="1.75" stroke-linecap="round" stroke-linejoin="round" stroke-miterlimit="10" x1="10.983" y1="12.786" x2="21.173" y2="12.786"/>
</g>
<path fill="none" stroke="#747474" stroke-width="1.75" stroke-linecap="round" stroke-linejoin="round" stroke-miterlimit="10" d="
	M1146.976-1415.934c5.407,0,9.792-4.384,9.792-9.792h-19.586C1137.182-1420.317,1141.568-1415.934,1146.976-1415.934z"/>
<line fill="none" stroke="#747474" stroke-width="1.75" stroke-linecap="round" stroke-linejoin="round" stroke-miterlimit="10" x1="1141.959" y1="-1430.095" x2="1141.959" y2="-1425.738"/>
<line fill="none" stroke="#747474" stroke-width="1.75" stroke-linecap="round" stroke-linejoin="round" stroke-miterlimit="10" x1="1152.15" y1="-1430.095" x2="1152.15" y2="-1425.738"/>
<path fill="none" stroke="#747474" stroke-width="1.75" stroke-linecap="round" stroke-linejoin="round" stroke-miterlimit="10" d="
	M1146.198-1415.932c-0.251,0.793-0.177,1.455,0.23,2.184c0.379,0.678,1.112,1.245,1.892,1.348c1.4,0.186,4.689-0.965,4.228,1.908
	c-0.385,2.395-3.809,1.669-5.464,1.565c-0.914-0.058-2.416-0.229-3.242,0.251c-0.817,0.473-0.845,1.826-0.015,2.413"/>
<line fill="none" stroke="#747474" stroke-width="1.75" stroke-linecap="round" stroke-linejoin="round" stroke-miterlimit="10" x1="1141.958" y1="-1421.988" x2="1152.147" y2="-1421.988"/>
</svg>
