<?xml version="1.0" encoding="utf-8"?>
<!-- Generator: Adobe Illustrator 16.0.3, SVG Export Plug-In . SVG Version: 6.00 Build 0)  -->
<!DOCTYPE svg PUBLIC "-//W3C//DTD SVG 1.1//EN" "http://www.w3.org/Graphics/SVG/1.1/DTD/svg11.dtd">
<svg version="1.1" id="Ebene_1" xmlns="http://www.w3.org/2000/svg" xmlns:xlink="http://www.w3.org/1999/xlink" x="0px" y="0px"
	 width="32px" height="32px" viewBox="0 0 32 32" enable-background="new 0 0 32 32" xml:space="preserve">
<g>
	
		<polygon fill="none" stroke="#747474" stroke-width="1.75" stroke-linecap="round" stroke-linejoin="round" stroke-miterlimit="10" points="
		9.266,28.074 22.732,28.074 25.907,11.481 5.846,11.603 	"/>
	
		<path fill="none" stroke="#747474" stroke-width="1.75" stroke-linecap="round" stroke-linejoin="round" stroke-miterlimit="10" d="
		M23.459,8.348c-0.227-1.131-1.139-2.015-2.285-2.197c0-0.012,0.001-0.023,0.001-0.035c0-1.535-1.245-2.779-2.78-2.779
		c-1.364,0-2.497,0.983-2.732,2.279c-0.182-0.037-0.369-0.057-0.561-0.057c-1.451,0-2.642,1.112-2.77,2.529
		c-0.476,0.087-2.427-0.145-3.154-0.145c-1.535,0-3.18,1.191-3.18,2.725c0,0.226-0.051,0.457,0,0.667l19.989,0.042
		C25.995,11.291,26,11.204,26,11.117C26,9.663,24.881,8.469,23.459,8.348z"/>
</g>
</svg>
