<?xml version="1.0" encoding="utf-8"?>
<!-- Generator: Adobe Illustrator 16.0.3, SVG Export Plug-In . SVG Version: 6.00 Build 0)  -->
<!DOCTYPE svg PUBLIC "-//W3C//DTD SVG 1.1//EN" "http://www.w3.org/Graphics/SVG/1.1/DTD/svg11.dtd">
<svg version="1.1" id="Ebene_1" xmlns="http://www.w3.org/2000/svg" xmlns:xlink="http://www.w3.org/1999/xlink" x="0px" y="0px"
	 width="32px" height="32px" viewBox="0 0 32 32" enable-background="new 0 0 32 32" xml:space="preserve">
<path fill="none" stroke="#747474" stroke-width="1.75" stroke-linecap="round" stroke-linejoin="round" stroke-miterlimit="10" d="
	M22.52,8.413c-0.121,0-0.238,0.011-0.356,0.018c-1.067-2.44-3.5-4.147-6.334-4.147c-3.817,0-6.913,3.095-6.913,6.913
	c0,0.052,0.007,0.103,0.008,0.154c-0.102-0.007-0.204-0.015-0.308-0.015c-2.453,0-4.44,1.988-4.44,4.439
	c0,2.36,1.842,4.284,4.166,4.426v0.014H22.52c3.259,0,5.901-2.643,5.901-5.9C28.421,11.055,25.778,8.413,22.52,8.413z"/>
<line fill="none" stroke="#747474" stroke-width="1.75" stroke-linecap="round" stroke-linejoin="round" stroke-miterlimit="10" x1="12.668" y1="29.006" x2="13.504" y2="25.385"/>
<line fill="none" stroke="#747474" stroke-width="1.75" stroke-linecap="round" stroke-linejoin="round" stroke-miterlimit="10" x1="21.102" y1="25.293" x2="21.938" y2="21.672"/>
<line fill="none" stroke="#747474" stroke-width="1.75" stroke-linecap="round" stroke-linejoin="round" stroke-miterlimit="10" x1="8.667" y1="23.959" x2="9.504" y2="20.338"/>
</svg>
