<?xml version="1.0" encoding="utf-8"?>
<!-- Generator: Adobe Illustrator 16.0.0, SVG Export Plug-In . SVG Version: 6.00 Build 0)  -->
<!DOCTYPE svg PUBLIC "-//W3C//DTD SVG 1.1//EN" "http://www.w3.org/Graphics/SVG/1.1/DTD/svg11.dtd">
<svg version="1.1" id="Ebene_1" xmlns="http://www.w3.org/2000/svg" xmlns:xlink="http://www.w3.org/1999/xlink" x="0px" y="0px"
	 width="32px" height="32px" viewBox="0 0 32 32" enable-background="new 0 0 32 32" xml:space="preserve">
<g>
	
		<rect x="8.241" y="5.283" fill="none" stroke="#747474" stroke-width="1.75" stroke-linecap="round" stroke-linejoin="round" stroke-miterlimit="10" width="15.472" height="12.791"/>
	
		<path fill="none" stroke="#747474" stroke-width="1.75" stroke-linecap="round" stroke-linejoin="round" stroke-miterlimit="10" d="
		M26.394,6.856"/>
	
		<path fill="none" stroke="#747474" stroke-width="1.75" stroke-linecap="round" stroke-linejoin="round" stroke-miterlimit="10" d="
		M26.394,13.695"/>
	
		<path fill="none" stroke="#747474" stroke-width="1.75" stroke-linecap="round" stroke-linejoin="round" stroke-miterlimit="10" d="
		M26.618,7.16c1.185,0.538,2.008,1.731,2.007,3.115c0,1.398-0.839,2.6-2.04,3.129"/>
	
		<path fill="none" stroke="#747474" stroke-width="1.75" stroke-linecap="round" stroke-linejoin="round" stroke-miterlimit="10" d="
		M5.026,7.16C3.842,7.697,3.019,8.891,3.02,10.275c0,1.398,0.839,2.6,2.041,3.129"/>
	
		<path fill="none" stroke="#747474" stroke-width="1.75" stroke-linecap="round" stroke-linejoin="round" stroke-miterlimit="10" d="
		M21.346,10.991c0.16,1.073-0.581,2.077-1.66,2.237c-1.073,0.161-2.075-0.584-2.235-1.657c-0.161-1.077,0.58-2.08,1.659-2.241
		C20.184,9.17,21.185,9.914,21.346,10.991z"/>
	
		<circle fill="none" stroke="#747474" stroke-width="1.75" stroke-linecap="round" stroke-linejoin="round" stroke-miterlimit="10" cx="12.526" cy="11.281" r="1.969"/>
	
		<polyline fill="none" stroke="#747474" stroke-width="1.75" stroke-linecap="round" stroke-linejoin="round" stroke-miterlimit="10" points="
		3.02,26.717 3.02,21.646 28.98,21.646 28.98,26.717 	"/>
</g>
</svg>
