<?xml version="1.0" encoding="utf-8"?>
<!-- Generator: Adobe Illustrator 16.0.3, SVG Export Plug-In . SVG Version: 6.00 Build 0)  -->
<!DOCTYPE svg PUBLIC "-//W3C//DTD SVG 1.1//EN" "http://www.w3.org/Graphics/SVG/1.1/DTD/svg11.dtd">
<svg version="1.1" id="Ebene_1" xmlns="http://www.w3.org/2000/svg" xmlns:xlink="http://www.w3.org/1999/xlink" x="0px" y="0px"
	 width="32px" height="32px" viewBox="0 0 32 32" enable-background="new 0 0 32 32" xml:space="preserve">
<g>
	
		<path fill="none" stroke="#747474" stroke-width="1.75" stroke-linecap="round" stroke-linejoin="round" stroke-miterlimit="10" d="
		M23.094,2.872c0,0-7.314,2.845-8.651,8.127c-1.337,5.283,1.173,9.41,1.173,9.41s5.588-0.88,7.627-6.147
		C25.282,8.992,23.094,2.872,23.094,2.872z"/>
	
		<path fill="none" stroke="#747474" stroke-width="1.75" stroke-linecap="round" stroke-linejoin="round" stroke-miterlimit="10" d="
		M11.408,14.165c0,0-4.714,3.646-3.231,10.295c3.259-2.918,4.208-3.742,4.208-3.742S11.082,16.701,11.408,14.165z"/>
	
		<path fill="none" stroke="#747474" stroke-width="1.75" stroke-linecap="round" stroke-linejoin="round" stroke-miterlimit="10" d="
		M23.484,19.717c0,0,0.543,5.92-5.307,9.411c-0.118-4.373-0.126-5.619-0.126-5.619S21.865,21.696,23.484,19.717z"/>
	
		<polyline fill="none" stroke="#747474" stroke-width="1.75" stroke-linecap="round" stroke-linejoin="round" stroke-miterlimit="10" points="
		12.177,23.794 12.177,29.128 16.178,25.794 	"/>
</g>
</svg>
