<?xml version="1.0" encoding="utf-8"?>
<!-- Generator: Adobe Illustrator 16.0.0, SVG Export Plug-In . SVG Version: 6.00 Build 0)  -->
<!DOCTYPE svg PUBLIC "-//W3C//DTD SVG 1.1//EN" "http://www.w3.org/Graphics/SVG/1.1/DTD/svg11.dtd">
<svg version="1.1" id="Ebene_1" xmlns="http://www.w3.org/2000/svg" xmlns:xlink="http://www.w3.org/1999/xlink" x="0px" y="0px"
	 width="32px" height="32px" viewBox="0 0 32 32" enable-background="new 0 0 32 32" xml:space="preserve">
<g>
	
		<path fill="none" stroke="#747474" stroke-width="1.75" stroke-linecap="round" stroke-linejoin="round" stroke-miterlimit="10" d="
		M14.513,21.809c-4.456-2.91-10.001-3.23-10.001-3.23v-5.385c0,0,6.733-0.31,10.001-3.231c0,1.077-0.397,3-0.397,6
		S14.513,20.731,14.513,21.809z"/>
	
		<path fill="none" stroke="#747474" stroke-width="1.75" stroke-linecap="round" stroke-linejoin="round" stroke-miterlimit="10" d="
		M20.85,4.639c3.963,2.266,6.639,6.524,6.639,11.415c0,4.817-2.6,9.017-6.463,11.308"/>
	
		<path fill="none" stroke="#747474" stroke-width="1.75" stroke-linecap="round" stroke-linejoin="round" stroke-miterlimit="10" d="
		M19.691,24.149c0.207-0.145,0.406-0.298,0.598-0.456c2.205-1.819,3.613-4.566,3.613-7.648c0-3.104-1.43-5.874-3.66-7.693
		c-0.223-0.182-0.455-0.354-0.693-0.516"/>
	
		<path fill="none" stroke="#747474" stroke-width="1.75" stroke-linecap="round" stroke-linejoin="round" stroke-miterlimit="10" d="
		M18.258,11.879c0.396,0.341,0.742,0.737,1.029,1.177c0.557,0.854,0.879,1.874,0.879,2.969c0,1.121-0.338,2.159-0.918,3.025
		c-0.256,0.384-0.561,0.735-0.902,1.042"/>
</g>
</svg>
