<?xml version="1.0" encoding="utf-8"?>
<!-- Generator: Adobe Illustrator 16.0.0, SVG Export Plug-In . SVG Version: 6.00 Build 0)  -->
<!DOCTYPE svg PUBLIC "-//W3C//DTD SVG 1.1//EN" "http://www.w3.org/Graphics/SVG/1.1/DTD/svg11.dtd">
<svg version="1.1" id="Ebene_1" xmlns="http://www.w3.org/2000/svg" xmlns:xlink="http://www.w3.org/1999/xlink" x="0px" y="0px"
	 width="32px" height="32px" viewBox="0 0 32 32" enable-background="new 0 0 32 32" xml:space="preserve">
<g>
	
		<path fill="none" stroke="#747474" stroke-width="1.75" stroke-linecap="round" stroke-linejoin="round" stroke-miterlimit="10" d="
		M20.531,15.128c0.512,2.581-1.164,5.093-3.752,5.608c-2.581,0.512-5.094-1.166-5.609-3.75c-0.513-2.585,1.169-5.097,3.752-5.608
		C17.506,10.864,20.016,12.543,20.531,15.128z"/>
	
		<path fill="none" stroke="#747474" stroke-width="1.75" stroke-linecap="round" stroke-linejoin="round" stroke-miterlimit="10" d="
		M13.641,27c-1.244-0.184-2.471-0.607-3.621-1.293c-2.35-1.395-3.91-3.615-4.536-6.076"/>
	
		<path fill="none" stroke="#747474" stroke-width="1.75" stroke-linecap="round" stroke-linejoin="round" stroke-miterlimit="10" d="
		M17.791,5c1.354,0.155,2.689,0.59,3.932,1.329c2.352,1.396,3.914,3.617,4.537,6.073"/>
	<path fill="#FFFFFF" d="M15.964,14.897c0.624,0.066,1.077,0.62,1.01,1.245c-0.064,0.621-0.62,1.07-1.241,1.006
		c-0.62-0.063-1.075-0.619-1.01-1.239C14.787,15.29,15.344,14.837,15.964,14.897z"/>
	
		<polyline fill="none" stroke="#747474" stroke-width="1.75" stroke-linecap="round" stroke-linejoin="round" stroke-miterlimit="10" points="
		28.33,9.353 26.262,12.449 22.951,10.722 	"/>
	
		<polyline fill="none" stroke="#747474" stroke-width="1.75" stroke-linecap="round" stroke-linejoin="round" stroke-miterlimit="10" points="
		3.669,22.779 5.489,19.535 8.926,20.996 	"/>
</g>
</svg>
