<?xml version="1.0" encoding="utf-8"?>
<!-- Generator: Adobe Illustrator 16.0.0, SVG Export Plug-In . SVG Version: 6.00 Build 0)  -->
<!DOCTYPE svg PUBLIC "-//W3C//DTD SVG 1.1//EN" "http://www.w3.org/Graphics/SVG/1.1/DTD/svg11.dtd">
<svg version="1.1" id="Ebene_1" xmlns="http://www.w3.org/2000/svg" xmlns:xlink="http://www.w3.org/1999/xlink" x="0px" y="0px"
	 width="32px" height="32px" viewBox="0 0 32 32" enable-background="new 0 0 32 32" xml:space="preserve">
<g>
	
		<path fill="none" stroke="#747474" stroke-width="1.75" stroke-linecap="round" stroke-linejoin="round" stroke-miterlimit="10" d="
		M17.496,23.907c-2.124,1.089-5.384,1.183-7.175,3.394c-1.716,2.114-4.104,1.55-5.39,0.515c-1.283-1.037-1.43-3.293-0.391-3.955
		c1.907-1.012,4.105-3.888,5.585-6.188c1.476-2.299,5.37-5.418,6.602-5.799c-0.231-1.116,1.552-4.754,1.552-4.754
		s0.052,0.737,0.482,1.972c0.434,1.236,0.439,2.597,0.157,3.519c0,0,4.076,1.67,6.604,5.24c1.4,1.98,2.133,3.623,2.623,6.036"/>
	
		<polyline fill="none" stroke="#747474" stroke-width="1.75" stroke-linecap="round" stroke-linejoin="round" stroke-miterlimit="10" points="
		11.384,16.09 3.854,3.261 13.582,14 	"/>
	
		<path fill="none" stroke="#747474" stroke-width="1.75" stroke-linecap="round" stroke-linejoin="round" stroke-miterlimit="10" d="
		M17.625,16.809c-1.073,0-2.146,0.771-2.146,0.771"/>
</g>
</svg>
