<?xml version="1.0" encoding="utf-8"?>
<!-- Generator: Adobe Illustrator 16.0.0, SVG Export Plug-In . SVG Version: 6.00 Build 0)  -->
<!DOCTYPE svg PUBLIC "-//W3C//DTD SVG 1.1//EN" "http://www.w3.org/Graphics/SVG/1.1/DTD/svg11.dtd">
<svg version="1.1" id="Ebene_1" xmlns="http://www.w3.org/2000/svg" xmlns:xlink="http://www.w3.org/1999/xlink" x="0px" y="0px"
	 width="32px" height="32px" viewBox="0 0 32 32" enable-background="new 0 0 32 32" xml:space="preserve">
<g>
	
		<path fill="none" stroke="#747474" stroke-width="1.75" stroke-linecap="round" stroke-linejoin="round" stroke-miterlimit="10" d="
		M8.908,27.573c0,0,2.223-1.653,3.965-5.646c1.521-3.485,1.784-7.286,1.784-7.286v-0.06c-0.065,0.007-0.139,0.015-0.219,0.027
		c-1.444,0.194-5.266,1.118-8.745,5.958c-0.416-3.232-1.822-11.99,8.55-10.373c-1.354-1.601-2.973-3.877-8.245-2.799
		c1.511-3.18,9.046-5.991,10.486,1.496c0,0,4.852-5.629,10.125-2.035c-3.321,0.636-6.141,1.944-7.703,3.943
		c0,0,12.537,0.438,4.823,12.793c-0.836-2.266-3.362-7.893-6.791-8.847l0,0c0,0,0.738,3.273-0.235,6.948
		c-1.115,4.21-3.063,6.184-3.063,6.184"/>
</g>
</svg>
