<?xml version="1.0" encoding="utf-8"?>
<!-- Generator: Adobe Illustrator 16.0.3, SVG Export Plug-In . SVG Version: 6.00 Build 0)  -->
<!DOCTYPE svg PUBLIC "-//W3C//DTD SVG 1.1//EN" "http://www.w3.org/Graphics/SVG/1.1/DTD/svg11.dtd">
<svg version="1.1" id="Ebene_1" xmlns="http://www.w3.org/2000/svg" xmlns:xlink="http://www.w3.org/1999/xlink" x="0px" y="0px"
	 width="32px" height="32px" viewBox="0 0 32 32" enable-background="new 0 0 32 32" xml:space="preserve">
<path fill="none" stroke="#3aa9ff" stroke-width="1.75" stroke-linecap="round" stroke-linejoin="round" stroke-miterlimit="10" d="
	M21.765,11.224c0,0,0,0.559,0,3.516c0,2.958,0.574,3.207,2.014,5.013c1.308,1.64,0.851,3.58,0.851,3.58H7.442
	c0,0-0.256-1.94,1.051-3.58c1.439-1.807,2.014-2.056,2.014-5.013c0-2.957,0-3.516,0-3.516s-0.2-5.077,5.51-5.038
	C21.765,6.225,21.765,11.224,21.765,11.224z"/>
<path fill="none" stroke="#3aa9ff" stroke-width="1.75" stroke-linecap="round" stroke-linejoin="round" stroke-miterlimit="10" d="
	M11.023,3.998c-0.604,0.214-4.352,1.335-4.646,5.914"/>
<circle fill="none" stroke="#3aa9ff" stroke-width="1.75" stroke-linecap="round" stroke-linejoin="round" stroke-miterlimit="10" cx="16" cy="27.335" r="1.334"/>
</svg>
