<?xml version="1.0" encoding="utf-8"?>
<!-- Generator: Adobe Illustrator 16.0.3, SVG Export Plug-In . SVG Version: 6.00 Build 0)  -->
<!DOCTYPE svg PUBLIC "-//W3C//DTD SVG 1.1//EN" "http://www.w3.org/Graphics/SVG/1.1/DTD/svg11.dtd">
<svg version="1.1" id="Ebene_1" xmlns="http://www.w3.org/2000/svg" xmlns:xlink="http://www.w3.org/1999/xlink" x="0px" y="0px"
	 width="32px" height="32px" viewBox="0 0 32 32" enable-background="new 0 0 32 32" xml:space="preserve">
<path fill="none" stroke="#3aa9ff" stroke-width="1.75" stroke-linecap="round" stroke-linejoin="round" stroke-miterlimit="10" d="
	M19.757,24.486c0.364-3.477,1.864-7.77,2.536-8.695c1.098-1.213,1.756-2.757,1.756-4.438c0-3.904-3.547-7.068-7.924-7.068
	s-7.926,3.164-7.926,7.068c0,1.493,0.521,2.877,1.404,4.019l0,0c0,0,0.004,0.003,0.011,0.01c0.056,0.072,0.111,0.143,0.171,0.212
	c0.563,0.733,2.286,5.13,2.68,8.892H19.757z"/>
<line fill="none" stroke="#3aa9ff" stroke-width="1.75" stroke-linecap="round" stroke-linejoin="round" stroke-miterlimit="10" x1="15.982" y1="13.91" x2="15.982" y2="20.961"/>
<line fill="none" stroke="#3aa9ff" stroke-width="1.75" stroke-linecap="round" stroke-linejoin="round" stroke-miterlimit="10" x1="12.29" y1="28.287" x2="19.662" y2="28.287"/>
</svg>
