<?xml version="1.0" encoding="utf-8"?>
<!-- Generator: Adobe Illustrator 16.0.3, SVG Export Plug-In . SVG Version: 6.00 Build 0)  -->
<!DOCTYPE svg PUBLIC "-//W3C//DTD SVG 1.1//EN" "http://www.w3.org/Graphics/SVG/1.1/DTD/svg11.dtd">
<svg version="1.1" id="Ebene_1" xmlns="http://www.w3.org/2000/svg" xmlns:xlink="http://www.w3.org/1999/xlink" x="0px" y="0px"
	 width="32px" height="32px" viewBox="0 0 32 32" enable-background="new 0 0 32 32" xml:space="preserve">
<g>
	
		<circle fill="none" stroke="#3aa9ff" stroke-width="1.75" stroke-linecap="round" stroke-linejoin="round" stroke-miterlimit="10" cx="16.16" cy="15.875" r="2.344"/>
	
		<path fill="none" stroke="#3aa9ff" stroke-width="1.75" stroke-linecap="round" stroke-linejoin="round" stroke-miterlimit="10" d="
		M15.787,13.206v-5.75c0,0,0.494-2.875,4.244-1.75s1.625,4.25,1.625,4.25l-3.848,3.848L15.787,13.206z"/>
	
		<path fill="none" stroke="#3aa9ff" stroke-width="1.75" stroke-linecap="round" stroke-linejoin="round" stroke-miterlimit="10" d="
		M13.957,14.437l-4.15-3.979c0,0-1.732-2.347,1.675-4.274s4.192,1.769,4.192,1.769l0.113,5.44L13.957,14.437z"/>
	
		<path fill="none" stroke="#3aa9ff" stroke-width="1.75" stroke-linecap="round" stroke-linejoin="round" stroke-miterlimit="10" d="
		M13.368,16.514l-5.75,0.061c0,0-2.88-0.464-1.794-4.225c1.086-3.763,4.233-1.67,4.233-1.67l3.887,3.807L13.368,16.514z"/>
	
		<path fill="none" stroke="#3aa9ff" stroke-width="1.75" stroke-linecap="round" stroke-linejoin="round" stroke-miterlimit="10" d="
		M14.618,18.332l-3.937,4.191c0,0-2.327,1.756-4.29-1.629c-1.964-3.387,1.725-4.211,1.725-4.211l5.438-0.17L14.618,18.332z"/>
	
		<path fill="none" stroke="#3aa9ff" stroke-width="1.75" stroke-linecap="round" stroke-linejoin="round" stroke-miterlimit="10" d="
		M16.662,18.715l0.18,5.746c0,0-0.404,2.889-4.188,1.881s-1.758-4.197-1.758-4.197l3.727-3.965L16.662,18.715z"/>
	
		<path fill="none" stroke="#3aa9ff" stroke-width="1.75" stroke-linecap="round" stroke-linejoin="round" stroke-miterlimit="10" d="
		M18.113,17.705l3.689,3.324c0,0,1.558,1.979-1.33,3.732c-2.891,1.758-3.667-1.414-3.667-1.414l-0.245-4.691L18.113,17.705z"/>
	
		<path fill="none" stroke="#3aa9ff" stroke-width="1.75" stroke-linecap="round" stroke-linejoin="round" stroke-miterlimit="10" d="
		M18.645,15.491l5.528,0.1c0,0,2.755,0.524,1.61,4.111c-1.147,3.586-4.116,1.49-4.116,1.49l-3.632-3.768L18.645,15.491z"/>
	
		<path fill="none" stroke="#3aa9ff" stroke-width="1.75" stroke-linecap="round" stroke-linejoin="round" stroke-miterlimit="10" d="
		M17.827,13.702l4.042-3.868c0,0,2.35-1.586,4.082,1.804c1.733,3.392-1.893,4.001-1.893,4.001l-5.291-0.115L17.827,13.702z"/>
</g>
</svg>
