<?xml version="1.0" encoding="utf-8"?>
<!-- Generator: Adobe Illustrator 16.0.0, SVG Export Plug-In . SVG Version: 6.00 Build 0)  -->
<!DOCTYPE svg PUBLIC "-//W3C//DTD SVG 1.1//EN" "http://www.w3.org/Graphics/SVG/1.1/DTD/svg11.dtd">
<svg version="1.1" id="Ebene_1" xmlns="http://www.w3.org/2000/svg" xmlns:xlink="http://www.w3.org/1999/xlink" x="0px" y="0px"
	 width="32px" height="32px" viewBox="0 0 32 32" enable-background="new 0 0 32 32" xml:space="preserve">
<rect x="5.642" y="4.971" fill="none" stroke="#3aa9ff" stroke-width="1.75" stroke-linecap="round" stroke-linejoin="round" stroke-miterlimit="10" width="21.002" height="21.001"/>
<g>
	
		<path fill="none" stroke="#3aa9ff" stroke-width="1.75" stroke-linecap="round" stroke-linejoin="round" stroke-miterlimit="10" d="
		M12.433,25.746c0,0-1.948-11.56-1.205-13.784c0.7-2.108,1.756-1.847,2.804-1.847c1.051,0,2.113,1.144,2.113,2.549
		c0,2.704,0.341,5.469-0.362,9.686c0,0,2.232-3.26,3.699-2.525c1.688,0.844,0.314,4.283-0.367,6.051"/>
	
		<line fill="none" stroke="#3aa9ff" stroke-width="1.75" stroke-linecap="round" stroke-linejoin="round" stroke-miterlimit="10" x1="10.91" y1="9.282" x2="11.855" y2="10.666"/>
	
		<line fill="none" stroke="#3aa9ff" stroke-width="1.75" stroke-linecap="round" stroke-linejoin="round" stroke-miterlimit="10" x1="14.036" y1="8.448" x2="14.036" y2="9.854"/>
	
		<line fill="none" stroke="#3aa9ff" stroke-width="1.75" stroke-linecap="round" stroke-linejoin="round" stroke-miterlimit="10" x1="16.067" y1="11.921" x2="16.848" y2="10.557"/>
	
		<line fill="none" stroke="#3aa9ff" stroke-width="1.75" stroke-linecap="round" stroke-linejoin="round" stroke-miterlimit="10" x1="16.215" y1="15.218" x2="17.896" y2="14.445"/>
	
		<line fill="none" stroke="#3aa9ff" stroke-width="1.75" stroke-linecap="round" stroke-linejoin="round" stroke-miterlimit="10" x1="9.368" y1="18.072" x2="11.149" y2="17.936"/>
	
		<line fill="none" stroke="#3aa9ff" stroke-width="1.75" stroke-linecap="round" stroke-linejoin="round" stroke-miterlimit="10" x1="11.498" y1="21.1" x2="10.248" y2="22.211"/>
	
		<line fill="none" stroke="#3aa9ff" stroke-width="1.75" stroke-linecap="round" stroke-linejoin="round" stroke-miterlimit="10" x1="11.928" y1="25.313" x2="11.024" y2="25.227"/>
	
		<line fill="none" stroke="#3aa9ff" stroke-width="1.75" stroke-linecap="round" stroke-linejoin="round" stroke-miterlimit="10" x1="10.488" y1="13.59" x2="9.152" y2="13.146"/>
	
		<line fill="none" stroke="#3aa9ff" stroke-width="1.75" stroke-linecap="round" stroke-linejoin="round" stroke-miterlimit="10" x1="19.104" y1="19.548" x2="19.34" y2="17.939"/>
	
		<line fill="none" stroke="#3aa9ff" stroke-width="1.75" stroke-linecap="round" stroke-linejoin="round" stroke-miterlimit="10" x1="20.484" y1="20.975" x2="21.92" y2="20.529"/>
</g>
<line fill="none" stroke="#3aa9ff" stroke-width="1.75" stroke-linecap="round" stroke-linejoin="round" stroke-miterlimit="10" x1="20.275" y1="23.85" x2="21.523" y2="23.841"/>
</svg>
