<?xml version="1.0" encoding="utf-8"?>
<!-- Generator: Adobe Illustrator 16.0.3, SVG Export Plug-In . SVG Version: 6.00 Build 0)  -->
<!DOCTYPE svg PUBLIC "-//W3C//DTD SVG 1.1//EN" "http://www.w3.org/Graphics/SVG/1.1/DTD/svg11.dtd">
<svg version="1.1" id="Ebene_1" xmlns="http://www.w3.org/2000/svg" xmlns:xlink="http://www.w3.org/1999/xlink" x="0px" y="0px"
	 width="32px" height="32px" viewBox="0 0 32 32" enable-background="new 0 0 32 32" xml:space="preserve">
<path fill="none" stroke="#3aa9ff" stroke-width="1.75" stroke-linecap="round" stroke-linejoin="round" stroke-miterlimit="10" d="
	M23.125,8.045c-0.645,0-1.252,0.159-1.787,0.438c-0.864-2.234-3.032-3.821-5.571-3.821c-0.846,0-1.648,0.176-2.377,0.493
	c-0.441-0.196-0.93-0.306-1.444-0.306c-1.766,0-3.229,1.284-3.514,2.968c-1.794,0.547-3.098,2.179-3.098,3.512
	c0,2.418,1.582,4.668,4,4.668c0.968,0,2.001,0,2.965-0.463l-2.191,4.438l3.093,1.483l-2.967,8.312l10.436-13.77l-4.668,0.666
	c0,0,6.002-0.666,7.336-1.333c2.148-1.075,3.662-1.271,3.662-3.409C26.999,9.78,25.265,8.045,23.125,8.045z"/>
</svg>
