<?xml version="1.0" encoding="utf-8"?>
<!-- Generator: Adobe Illustrator 16.0.0, SVG Export Plug-In . SVG Version: 6.00 Build 0)  -->
<!DOCTYPE svg PUBLIC "-//W3C//DTD SVG 1.1//EN" "http://www.w3.org/Graphics/SVG/1.1/DTD/svg11.dtd">
<svg version="1.1" id="Ebene_1" xmlns="http://www.w3.org/2000/svg" xmlns:xlink="http://www.w3.org/1999/xlink" x="0px" y="0px"
	 width="32px" height="32px" viewBox="0 0 32 32" enable-background="new 0 0 32 32" xml:space="preserve">
<g>
	
		<path fill="none" stroke="#3aa9ff" stroke-width="1.75" stroke-linecap="round" stroke-linejoin="round" stroke-miterlimit="10" d="
		M13.539,25.546c0,0-1.908,1.029-0.887,2.852c0.486,0.869,2.723,1.851,4.045-0.794c1.321-2.644-0.754-11.895-1.739-18.787
		c-0.835-5.847,1.712-6.413,3.147-6.049c1.612,0.41,1.668,3.602,0.984,4.922c-1.423,2.747-4.375,4.713-6.357,7.357
		c-1.773,2.365-1.984,7.931,5.286,6.609c2.877-0.634,2.221-3.716,2.221-3.716S20,15.708,17.357,15.708
		c-1.658,0-2.65,0.831-2.977,1.827"/>
</g>
</svg>
