<?xml version="1.0" encoding="utf-8"?>
<!-- Generator: Adobe Illustrator 16.0.3, SVG Export Plug-In . SVG Version: 6.00 Build 0)  -->
<!DOCTYPE svg PUBLIC "-//W3C//DTD SVG 1.1//EN" "http://www.w3.org/Graphics/SVG/1.1/DTD/svg11.dtd">
<svg version="1.1" id="Ebene_1" xmlns="http://www.w3.org/2000/svg" xmlns:xlink="http://www.w3.org/1999/xlink" x="0px" y="0px"
	 width="32px" height="32px" viewBox="0 0 32 32" enable-background="new 0 0 32 32" xml:space="preserve">
<g>
	
		<path fill="none" stroke="#3aa9ff" stroke-width="1.75" stroke-linecap="round" stroke-linejoin="round" stroke-miterlimit="10" d="
		M17.333,15.917c1.232,1.05,1.774,1.905,2.18,3.355c0.178,0.637,0.273,1.291,0.287,1.949"/>
	
		<path fill="none" stroke="#3aa9ff" stroke-width="1.75" stroke-linecap="round" stroke-linejoin="round" stroke-miterlimit="10" d="
		M9.432,12.002c0.024,0.041,0.047,0.081,0.071,0.12c1.37,2.274,3.863,3.794,6.711,3.794h1.118"/>
	
		<path fill="none" stroke="#3aa9ff" stroke-width="1.75" stroke-linecap="round" stroke-linejoin="round" stroke-miterlimit="10" d="
		M20.688,8.646c-1.678,1.119-3.355,3.304-3.355,6.152v0.56"/>
	
		<polygon fill="none" stroke="#3aa9ff" stroke-width="1.75" stroke-linecap="round" stroke-linejoin="round" stroke-miterlimit="10" points="
		4.75,7.207 14.257,7.207 4.75,16.238 	"/>
	
		<polygon fill="none" stroke="#3aa9ff" stroke-width="1.75" stroke-linecap="round" stroke-linejoin="round" stroke-miterlimit="10" points="
		25.484,3.893 25.484,13.4 16.452,3.893 	"/>
	
		<polygon fill="none" stroke="#3aa9ff" stroke-width="1.75" stroke-linecap="round" stroke-linejoin="round" stroke-miterlimit="10" points="
		18.478,28.635 13.445,20.661 19.57,22.046 26.428,23.597 	"/>
</g>
</svg>
