<?xml version="1.0" encoding="utf-8"?>
<!-- Generator: Adobe Illustrator 16.0.3, SVG Export Plug-In . SVG Version: 6.00 Build 0)  -->
<!DOCTYPE svg PUBLIC "-//W3C//DTD SVG 1.1//EN" "http://www.w3.org/Graphics/SVG/1.1/DTD/svg11.dtd">
<svg version="1.1" id="Ebene_1" xmlns="http://www.w3.org/2000/svg" xmlns:xlink="http://www.w3.org/1999/xlink" x="0px" y="0px"
	 width="32px" height="32px" viewBox="0 0 32 32" enable-background="new 0 0 32 32" xml:space="preserve">
<path fill="#FFFFFF" stroke="#FFF282" stroke-width="2.7592" stroke-miterlimit="10" d="M20.519,25.729"/>
<path fill="none" stroke="#3aa9ff" stroke-width="1.75" stroke-miterlimit="10" d="M22.159,28.54
	C14.147,24.579,8.638,16.323,8.638,6.78c0-0.4,0.009-0.798,0.028-1.193"/>
<path fill="none" stroke="#3aa9ff" stroke-width="1.75" stroke-linecap="round" stroke-linejoin="round" stroke-miterlimit="10" d="
	M8.666,5.587c0,0,3.349-3.398,5.145-1.603c1.796,1.796,2.694,5.389,1.796,7.185c-0.897,1.796-6.286,0.898-6.286,0.898"/>
<path fill="none" stroke="#3aa9ff" stroke-width="1.75" stroke-linecap="round" stroke-linejoin="round" stroke-miterlimit="10" d="
	M21.911,28.294c0,0,4.627-1.162,3.988-3.621c-0.638-2.459-3.278-5.055-5.283-5.189c-2.003-0.137-3.96,4.962-3.96,4.962"/>
</svg>
