<?xml version="1.0" encoding="utf-8"?>
<!-- Generator: Adobe Illustrator 16.0.0, SVG Export Plug-In . SVG Version: 6.00 Build 0)  -->
<!DOCTYPE svg PUBLIC "-//W3C//DTD SVG 1.1//EN" "http://www.w3.org/Graphics/SVG/1.1/DTD/svg11.dtd">
<svg version="1.1" id="Ebene_1" xmlns="http://www.w3.org/2000/svg" xmlns:xlink="http://www.w3.org/1999/xlink" x="0px" y="0px"
	 width="32px" height="32px" viewBox="0 0 32 32" enable-background="new 0 0 32 32" xml:space="preserve">
<g>
	
		<path fill="none" stroke="#3aa9ff" stroke-width="1.75" stroke-linecap="round" stroke-linejoin="round" stroke-miterlimit="10" d="
		M17.511,21.148V5.43l0,0c0-0.003,0-0.006,0-0.01c0-1.605-1.302-2.906-2.911-2.906s-2.912,1.301-2.912,2.906c0,0.003,0,0.006,0,0.01
		l0,0v15.718c-1.075,0.857-1.767,2.178-1.767,3.66c0,2.584,2.095,4.678,4.679,4.678c2.586,0,4.68-2.094,4.68-4.678
		C19.279,23.324,18.59,22.006,17.511,21.148z"/>
	
		<path fill="none" stroke="#3aa9ff" stroke-width="1.75" stroke-linecap="round" stroke-linejoin="round" stroke-miterlimit="10" d="
		M14.6,25.027"/>
	<circle fill="#FFFFFF" cx="14.6" cy="25.027" r="1.131"/>
	
		<line fill="none" stroke="#3aa9ff" stroke-width="1.75" stroke-linecap="round" stroke-linejoin="round" stroke-miterlimit="10" x1="21.123" y1="7.219" x2="24.746" y2="7.219"/>
	
		<line fill="none" stroke="#3aa9ff" stroke-width="1.75" stroke-linecap="round" stroke-linejoin="round" stroke-miterlimit="10" x1="21.449" y1="13.159" x2="24.418" y2="13.159"/>
	
		<line fill="none" stroke="#3aa9ff" stroke-width="1.75" stroke-linecap="round" stroke-linejoin="round" stroke-miterlimit="10" x1="22.934" y1="9.032" x2="22.934" y2="5.407"/>
</g>
</svg>
