<?xml version="1.0" encoding="utf-8"?>
<!-- Generator: Adobe Illustrator 16.0.3, SVG Export Plug-In . SVG Version: 6.00 Build 0)  -->
<!DOCTYPE svg PUBLIC "-//W3C//DTD SVG 1.1//EN" "http://www.w3.org/Graphics/SVG/1.1/DTD/svg11.dtd">
<svg version="1.1" id="Ebene_1" xmlns="http://www.w3.org/2000/svg" xmlns:xlink="http://www.w3.org/1999/xlink" x="0px" y="0px"
	 width="32px" height="32px" viewBox="0 0 32 32" enable-background="new 0 0 32 32" xml:space="preserve">
<g>
	
		<line fill="none" stroke="#3aa9ff" stroke-width="1.75" stroke-linecap="round" stroke-miterlimit="10" x1="16.178" y1="29.261" x2="16.178" y2="21.927"/>
	
		<path fill="none" stroke="#3aa9ff" stroke-width="1.75" stroke-linecap="round" stroke-linejoin="round" stroke-miterlimit="10" d="
		M27.157,13.205c0-3.215-2.418-5.879-5.58-6.361c-0.03-2.271-1.929-4.104-4.268-4.104c-1.799,0-3.335,1.083-3.965,2.614
		c-2.224,0.605-3.88,2.533-4.016,4.859c-2.553,0.468-4.486,2.65-4.486,5.273c0,2.965,2.468,5.367,5.511,5.367
		c1.213,0,2.334-0.383,3.244-1.03c0.735,1.256,2.121,2.104,3.712,2.104c1.675,0,3.124-0.94,3.823-2.308
		C24.509,19.33,27.157,16.57,27.157,13.205z"/>
</g>
</svg>
