<?xml version="1.0" encoding="utf-8"?>
<!-- Generator: Adobe Illustrator 16.0.3, SVG Export Plug-In . SVG Version: 6.00 Build 0)  -->
<!DOCTYPE svg PUBLIC "-//W3C//DTD SVG 1.1//EN" "http://www.w3.org/Graphics/SVG/1.1/DTD/svg11.dtd">
<svg version="1.1" id="Ebene_1" xmlns="http://www.w3.org/2000/svg" xmlns:xlink="http://www.w3.org/1999/xlink" x="0px" y="0px"
	 width="32px" height="32px" viewBox="0 0 32 32" enable-background="new 0 0 32 32" xml:space="preserve">
<g>
	
		<circle fill="none" stroke="#3aa9ff" stroke-width="1.75" stroke-linecap="round" stroke-linejoin="round" stroke-miterlimit="10" cx="16.17" cy="15.77" r="3.17"/>
	
		<path fill="none" stroke="#3aa9ff" stroke-width="1.75" stroke-linecap="round" stroke-linejoin="round" stroke-miterlimit="10" d="
		M9.258,15.77c-0.833-0.219-1.645-0.578-2.4-1.086c-1.85-1.244-3.006-3.134-3.367-5.167"/>
	
		<path fill="none" stroke="#3aa9ff" stroke-width="1.75" stroke-linecap="round" stroke-linejoin="round" stroke-miterlimit="10" d="
		M16.17,8.995c0.199-0.838,0.541-1.657,1.031-2.424c1.203-1.876,3.066-3.073,5.092-3.481"/>
	
		<path fill="none" stroke="#3aa9ff" stroke-width="1.75" stroke-linecap="round" stroke-linejoin="round" stroke-miterlimit="10" d="
		M23.031,15.77c0.82,0.256,1.617,0.652,2.348,1.195c1.791,1.326,2.859,3.266,3.131,5.313"/>
	
		<path fill="none" stroke="#3aa9ff" stroke-width="1.75" stroke-linecap="round" stroke-linejoin="round" stroke-miterlimit="10" d="
		M16.17,22.744c-0.164,0.846-0.471,1.68-0.927,2.467c-1.119,1.926-2.929,3.203-4.935,3.699"/>
</g>
</svg>
