<?xml version="1.0" encoding="utf-8"?>
<!-- Generator: Adobe Illustrator 16.0.3, SVG Export Plug-In . SVG Version: 6.00 Build 0)  -->
<!DOCTYPE svg PUBLIC "-//W3C//DTD SVG 1.1//EN" "http://www.w3.org/Graphics/SVG/1.1/DTD/svg11.dtd">
<svg version="1.1" id="Ebene_1" xmlns="http://www.w3.org/2000/svg" xmlns:xlink="http://www.w3.org/1999/xlink" x="0px" y="0px"
	 width="32px" height="32px" viewBox="0 0 32 32" enable-background="new 0 0 32 32" xml:space="preserve">
<g>
	
		<line fill="none" stroke="#3aa9ff" stroke-width="1.75" stroke-linecap="round" stroke-linejoin="round" stroke-miterlimit="1" x1="23.078" y1="6.168" x2="23.078" y2="22.707"/>
	<path fill="none" stroke="#3aa9ff" stroke-width="1.75" stroke-linecap="round" stroke-linejoin="round" stroke-miterlimit="1" d="
		M23.078,6.168"/>
	<path fill="none" stroke="#3aa9ff" stroke-width="1.75" stroke-linecap="round" stroke-linejoin="round" stroke-miterlimit="1" d="
		M8.887,6.168"/>
	<path fill="none" stroke="#3aa9ff" stroke-width="1.75" stroke-linecap="round" stroke-linejoin="round" stroke-miterlimit="1" d="
		M15.176,24.87c-4.436,0-6.289-2.163-6.289-2.163V6.168"/>
	<path fill="none" stroke="#3aa9ff" stroke-width="1.75" stroke-linecap="round" stroke-linejoin="round" stroke-miterlimit="1" d="
		M8.887,6.168c0,0,2.115-2.169,7.332-2.169s6.859,2.169,6.859,2.169c0.184,1.842-0.359,2.313-1.643,3.049
		c-0.891,0.511-3.309,1.485-4.174,2.087c-0.947,0.66-1.572,1.131-2.086,2.087v14.61c0,0,2.086-3.131,4.174-4.175
		c2.086-1.043,3.729-1.119,3.729-1.119"/>
</g>
</svg>
