<?xml version="1.0" encoding="utf-8"?>
<!-- Generator: Adobe Illustrator 16.0.3, SVG Export Plug-In . SVG Version: 6.00 Build 0)  -->
<!DOCTYPE svg PUBLIC "-//W3C//DTD SVG 1.1//EN" "http://www.w3.org/Graphics/SVG/1.1/DTD/svg11.dtd">
<svg version="1.1" id="Ebene_1" xmlns="http://www.w3.org/2000/svg" xmlns:xlink="http://www.w3.org/1999/xlink" x="0px" y="0px"
	 width="32px" height="32px" viewBox="0 0 32 32" enable-background="new 0 0 32 32" xml:space="preserve">
<path fill="#FFFFFF" d="M6.94,8.582h5.225c0,0,3.637,0.265,4.938,3.417c0,0,3.505-3.417,5.798-3.417c2.291,0,4.848,0,4.848,0
	s-0.286,2.909-2.006,2.909c-1.719,0-5.467-0.506-7.186,3.66c-1.719,4.166,2.667,5.421,2.889,5.421c0.22,0,4.43-0.308,4.43,2.822
	c-3.482,0-4.607,0-4.607,0s-3.151,0.507-5.488-3.175c0,0-3.107,3.198-5.29,3.198c-2.182,0-6.237,0-6.237,0s1.321-2.779,2.799-2.779
	c1.477,0,3.351,0,3.351,0s3.328-1.103,4.232-4.232c0.903-3.13-1.985-4.783-2.933-4.871c-0.948-0.088-2.534,0-2.534,0
	S6.94,11.359,6.94,8.582z"/>
</svg>
